<mxfile host="app.diagrams.net" modified="2023-11-06T18:18:49.560Z" agent="Mozilla/5.0 (Macintosh; Intel Mac OS X 10_15_7) AppleWebKit/537.36 (KHTML, like Gecko) Chrome/118.0.0.0 Safari/537.36" version="22.0.8" etag="V3jPSAQYb6VB5-Oyvy_v" type="github">
  <diagram name="Страница — 1" id="3_orR_MyD0tz__A7_W7j">
    <mxGraphModel>
      <root>
        <mxCell id="0" />
        <mxCell id="1" parent="0" />
      </root>
    </mxGraphModel>
  </diagram>
</mxfile>
